<svg width="24" height="24" viewBox="0 0 24 24" fill="none" xmlns="http://www.w3.org/2000/svg">
<path d="M19.4697 20.5304C19.7626 20.8233 20.2374 20.8233 20.5303 20.5304C20.8232 20.2375 20.8232 19.7626 20.5303 19.4697L19.4697 20.5304ZM17.25 10.5001C17.25 14.228 14.2279 17.2501 10.5 17.2501V18.7501C15.0563 18.7501 18.75 15.0564 18.75 10.5001H17.25ZM10.5 17.2501C6.77208 17.2501 3.75 14.228 3.75 10.5001H2.25C2.25 15.0564 5.94365 18.7501 10.5 18.7501V17.2501ZM3.75 10.5001C3.75 6.77214 6.77208 3.75006 10.5 3.75006V2.25006C5.94365 2.25006 2.25 5.94371 2.25 10.5001H3.75ZM10.5 3.75006C14.2279 3.75006 17.25 6.77214 17.25 10.5001H18.75C18.75 5.94371 15.0563 2.25006 10.5 2.25006V3.75006ZM20.5303 19.4697L16.3428 15.2822L15.2821 16.3428L19.4697 20.5304L20.5303 19.4697Z" fill="white"/>
</svg>
